<?xml version="1.0" encoding="utf-8"?>
<!-- Generator: Adobe Illustrator 25.0.1, SVG Export Plug-In . SVG Version: 6.00 Build 0)  -->
<svg version="1.1" id="图层_1" xmlns="http://www.w3.org/2000/svg" xmlns:xlink="http://www.w3.org/1999/xlink" x="0px" y="0px"
	 viewBox="0 0 24 24" style="enable-background:new 0 0 24 24;" xml:space="preserve">
<style type="text/css">
	.st0{opacity:0;}
	.st1{fill:rgba(255,255,255,.8);}
	.st2{fill:rgba(255,255,255,.8);}
</style>
<g id="页面-1">
	<g id="矩形" class="st0">
		<path class="st1" d="M24,24H0V0h24V24z M1,23h22V1H1V23z"/>
	</g>
	<g id="a-dinggoukefu备份">
		<g id="路径">
			<path class="st2" d="M12,0c5.5,0,10,4.5,10,10h-2c0-4.4-3.6-8-8-8s-8,3.6-8,8H2C2,4.5,6.5,0,12,0z"/>
		</g>
		<g id="路径_1_">
			<path class="st2" d="M6,10c0,2.1,1.1,4.1,3,5.2c1.9,1.1,4.1,1.1,6,0c1.9-1.1,3-3.1,3-5.2c0-3.3-2.7-6-6-6C8.7,4,6,6.7,6,10z"/>
		</g>
		<g id="路径_2_">
			<path class="st2" d="M18.1,15c2.9,1.2,4.9,3.4,4.9,6.7c0,0.6-0.7,1.2-1.7,1.5c-2,0.6-5.6,0.8-9.3,0.8c-3.5,0-6.8-0.2-8.9-0.7
				C2,23.1,1,22.6,1,21.7c0-3.3,1.9-5.5,4.9-6.7c1.5,1.8,3.8,2.8,6.1,2.8c2.3,0,4.5-1,6.1-2.7L18.1,15z"/>
		</g>
		<g id="路径_3_">
			<path class="st2" d="M2,8L2,8c1.3,0,2,0.7,2,2v2c0,1.3-0.7,2-2,2l0,0c-1.3,0-2-0.7-2-2v-2C0,8.7,0.7,8,2,8L2,8z"/>
		</g>
		<g id="路径_4_">
			<path class="st2" d="M22,8L22,8c1.3,0,2,0.7,2,2v2c0,1.3-0.7,2-2,2l0,0c-1.3,0-2-0.7-2-2v-2C20,8.7,20.7,8,22,8z"/>
		</g>
	</g>
</g>
</svg>
