<svg viewBox="0 0 32 32" xmlns="http://www.w3.org/2000/svg"><path d="M29.896 23.9C31.219 21.632 32 18.907 32 16s-.781-5.632-2.145-7.976l.041.076a.663.663 0 0 0-.125-.205l.001.001C26.95 3.14 21.841.001 16 .001c-5.83 0-10.93 3.126-13.715 7.794l-.04.073a.642.642 0 0 0-.143.231l-.001.005c-1.323 2.268-2.104 4.993-2.104 7.9s.781 5.632 2.145 7.976l-.041-.076a.58.58 0 0 0 .109.181l-.001-.001c2.821 4.762 7.932 7.905 13.778 7.905s10.957-3.143 13.737-7.831l.041-.074a.662.662 0 0 0 .13-.18l.002-.004zm-.972-.86h-4.86c.569-2.073.896-4.454.896-6.911v-.136V16v-.129c0-2.457-.327-4.838-.94-7.101l.044.19h4.86c1.13 2.033 1.796 4.459 1.796 7.04s-.666 5.007-1.834 7.115l.038-.075zM16 30.72c-2.624 0-4.944-2.54-6.328-6.4h12.656c-1.384 3.86-3.704 6.4-6.328 6.4zm-6.744-7.68c-.595-2.069-.936-4.446-.936-6.903v-.145.007-.137c0-2.457.342-4.834.981-7.085l-.044.183h13.488c.595 2.069.936 4.446.936 6.903v.145-.007.137a25.91 25.91 0 0 1-.981 7.085l.044-.183zM16 1.28c2.624 0 4.944 2.54 6.328 6.4H9.672c1.384-3.86 3.704-6.4 6.328-6.4zm12.132 6.4H23.68c-.8-2.4-1.96-4.4-3.348-5.748 3.244 1.03 5.928 3.049 7.768 5.699l.032.049zM11.668 1.932C10.28 3.276 9.128 5.264 8.32 7.68H3.868c1.872-2.699 4.556-4.718 7.695-5.719l.105-.029zM3.076 8.96h4.86c-.569 2.073-.896 4.454-.896 6.911v.136V16v.129c0 2.457.327 4.838.94 7.101l-.044-.19h-4.86C1.946 21.007 1.28 18.581 1.28 16s.665-5.007 1.834-7.115l-.038.075zm.8 15.36H8.32c.8 2.4 1.96 4.4 3.348 5.748-3.244-1.03-5.928-3.049-7.768-5.699l-.032-.049zm16.456 5.748c1.388-1.344 2.54-3.332 3.348-5.748h4.452c-1.872 2.699-4.556 4.718-7.695 5.719l-.105.029z" fill="#fff"/></svg>